<svg preserveAspectRatio="none" width="100%" height="100%" overflow="visible" style="display: block;" viewBox="0 0 74.7049 75.9711" fill="none" xmlns="http://www.w3.org/2000/svg">
<g id="Group 10">
<path id="Vector" d="M45.1592 53.7963L38.3932 74.5328C38.2187 75.0623 37.2771 76.1335 36.8184 75.9502C36.3598 75.7669 35.5075 74.9034 35.3492 74.3943L33.8271 69.4576L30.7181 59.8979C30.2027 58.3175 29.9267 56.5212 28.5548 55.3441C26.3509 53.4541 23.7331 60.6473 16.8373 60.5455C11.6583 60.4722 8.78877 54.0529 10.7491 50.1426C11.013 49.6131 13.022 49.7638 13.2331 50.2689C14.5075 53.279 13.4036 54.4276 14.8688 56.2279C15.4451 56.9326 17.7505 57.0181 18.6069 56.5986C24.4677 53.7067 28.5183 48.9777 32.8733 44.2325C37.9102 38.7418 49.644 27.1496 55.6185 23.4267C57.0918 22.5062 59.1253 22.0377 60.9761 21.606C62.287 21.3005 63.9754 21.9237 65.2012 22.4247C69.5197 24.1802 70.1082 29.3287 69.5968 30.5262C69.3005 31.2187 67.3523 31.8663 66.8491 31.2716L65.7085 27.2473C59.799 22.4776 52.2538 29.6586 54.2548 30.4814C58.898 32.3958 63.3058 33.5893 67.9774 35.1004L72.9412 36.7052C73.546 36.9007 74.1751 37.1777 74.447 37.4873C76.4439 39.7601 66.1834 41.9107 66.2808 41.8782L54.5957 45.7436L51.1052 46.8148C47.6431 47.8779 46.2753 50.4033 45.1672 53.8003L45.1592 53.7963Z" fill="url(#paint0_linear_0_4)"/>
<path id="Vector_2" d="M15.5707 45.1341C12.5654 44.2365 9.87684 43.2023 7.29392 42.0606L0 40.0296L0.0852695 37.105L8.61787 34.5362C12.1796 33.4648 15.859 31.6199 19.4288 30.896C27.9695 29.1544 28.197 23.8348 30.2925 17.1831L35.1538 1.74533C35.3893 1.00074 37.0748 -0.38088 37.5134 0.0989653C38.1551 0.793914 38.2403 2.69261 38.5124 3.51166L41.8507 13.5015L43.6499 19.3631C44.7505 22.9495 44.7504 26.0644 41.6152 28.6291L30.3331 40.2984L26.7837 43.8559C24.8099 45.8332 23.6281 47.5375 20.3751 46.5695L15.5707 45.1341Z" fill="url(#paint1_linear_0_4)"/>
<path id="Vector_3" d="M21.525 11.7865C15.452 13.7638 16.8614 15.6028 14.0875 17.7266C12.0003 15.318 10.0881 13.4872 7.59697 11.3919C9.76944 10.2161 12.2651 8.38525 13.1583 6.46084L13.7732 5.1345C13.9124 4.83342 14.7921 5.5861 14.9537 5.88717C16.3228 8.5073 18.374 10.1673 21.525 11.7865Z" fill="url(#paint2_linear_0_4)"/>
</g>
<defs>
<linearGradient id="paint0_linear_0_4" x1="71.7805" y1="24.4309" x2="9.00234" y2="72.3942" gradientUnits="userSpaceOnUse">
<stop stop-color="#BB7FFF"/>
<stop offset="1" stop-color="#D942FF"/>
</linearGradient>
<linearGradient id="paint1_linear_0_4" x1="42.3095" y1="2.50027" x2="-7.44694" y2="32.8193" gradientUnits="userSpaceOnUse">
<stop stop-color="#BB7FFF"/>
<stop offset="1" stop-color="#D942FF"/>
</linearGradient>
<linearGradient id="paint2_linear_0_4" x1="20.8942" y1="5.74049" x2="6.61809" y2="15.8564" gradientUnits="userSpaceOnUse">
<stop stop-color="#BB7FFF"/>
<stop offset="1" stop-color="#D942FF"/>
</linearGradient>
</defs>
</svg>
