<svg width="760" height="920" viewBox="0 0 760 920" fill="none" xmlns="http://www.w3.org/2000/svg">
  <rect width="760" height="920" rx="56" fill="#ECE8E1"/>
  <rect x="22" y="22" width="716" height="876" rx="42" fill="#F6F3EE"/>
  <path d="M224 194C274 156 330 140 382 140C434 140 490 156 540 194L598 338L572 772C514 810 454 826 382 826C306 826 248 810 190 772L164 338L224 194Z" fill="#B28D70"/>
  <path d="M224 194L164 338L190 772M540 194L598 338L572 772" stroke="#4D3A2E" stroke-width="8" stroke-linecap="round"/>
  <path d="M302 158L382 254L462 158" stroke="#4D3A2E" stroke-width="8" stroke-linecap="round"/>
  <path d="M328 254L302 370L382 394L462 370L436 254" fill="#8E6E57" stroke="#4D3A2E" stroke-width="8"/>
  <path d="M382 258V788" stroke="#4D3A2E" stroke-width="5" stroke-linecap="round"/>
  <path d="M286 468H376V530H268L286 468ZM498 468H408V530H516L498 468Z" fill="#A27F63" stroke="#4D3A2E" stroke-width="8"/>
</svg>
