<svg width="760" height="920" viewBox="0 0 760 920" fill="none" xmlns="http://www.w3.org/2000/svg">
  <rect width="760" height="920" rx="56" fill="#1A1510"/>
  <circle cx="382" cy="364" r="250" fill="#4D3726"/>
  <path d="M224 194C274 156 330 140 382 140C434 140 490 156 540 194L598 338L572 772C514 810 454 826 382 826C306 826 248 810 190 772L164 338L224 194Z" fill="#B18B6E"/>
  <path d="M224 194L164 338L190 772M540 194L598 338L572 772" stroke="#FFF0E0" stroke-opacity="0.22" stroke-width="8" stroke-linecap="round"/>
  <path d="M302 158L382 254L462 158" stroke="#FFF0E0" stroke-opacity="0.22" stroke-width="8" stroke-linecap="round"/>
  <path d="M286 468H376V530H268L286 468ZM498 468H408V530H516L498 468Z" fill="#9B785E" stroke="#FFF0E0" stroke-opacity="0.22" stroke-width="8"/>
</svg>
